<?xml version="1.0" encoding="UTF-8" standalone="no"?>
<svg xmlns="http://www.w3.org/2000/svg" xmlns:xlink="http://www.w3.org/1999/xlink" width="421.260mm" height="31.435mm" viewBox="1405.687988 -2015.717529 421.260010 31.435059">
    <path transform="matrix(1,0,0,-1,0,0)" style="stroke:none;fill:#000000;fill-rule:evenodd" d="M1418.408691,2015.577393C1412.102173,2014.959229,1408.109497,2012.292236,1407.196167,2008.087891C1406.875732,2006.612183,1407.216309,2004.644531,1408.031616,2003.262451C1409.654175,2000.511963,1413.107544,1998.826904,1420.31897,1997.266724C1425.639526,1996.115723,1427.140503,1995.231201,1427.140503,1993.24707C1427.140503,1992.242065,1426.075806,1991.033936,1424.780151,1990.56897C1423.714844,1990.186646,1421.154663,1990.212646,1419.762939,1990.619995C1417.979614,1991.141968,1416.192993,1993.310303,1416.192993,1994.952637C1416.192993,1995.402588,1416.568604,1995.402466,1408.203613,1994.954712L1405.687988,1994.820068L1405.854126,1993.868164C1406.307983,1991.268188,1407.979248,1988.485596,1409.96521,1987.023315C1411.255005,1986.07373,1413.415161,1985.211182,1415.706421,1984.731079C1418.470093,1984.151978,1425.562988,1984.199951,1428.190063,1984.815552C1430.765625,1985.419189,1432.768799,1986.37793,1434.422852,1987.798584C1438.642334,1991.423096,1438.901489,1997.241821,1434.99292,2000.60083C1432.85022,2002.442261,1430.301636,2003.40625,1424.099487,2004.721313C1419.012695,2005.799805,1418.625732,2005.912598,1417.835083,2006.546387C1415.859619,2008.130005,1418.45874,2010.444702,1421.77417,2010.054321C1424.048218,2009.786621,1425.709106,2008.607056,1426.084961,2006.99292C1426.164917,2006.649658,1426.318726,2006.321899,1426.427002,2006.264404C1426.535156,2006.207031,1428.880371,2006.276001,1431.638672,2006.417725L1436.653687,2006.675415L1436.490356,2007.519165C1435.907349,2010.530518,1433.922363,2012.956299,1431.00061,2014.228149C1428.244873,2015.427612,1422.81604,2016.009399,1418.408691,2015.577393z"/>
    <path transform="matrix(1,0,0,-1,0,0)" style="stroke:none;fill:#000000;fill-rule:evenodd" d="M1437.60144,2011.392944L1437.60144,2007.631348L1443.196899,2007.631348L1448.792358,2007.631348L1448.792358,1996.242432L1448.792358,1984.853394L1454.266113,1984.853394L1459.739868,1984.853394L1459.739868,1996.242432L1459.739868,2007.631348L1465.335205,2007.631348L1470.930664,2007.631348L1470.930664,2011.392944L1470.930664,2015.154419L1454.266113,2015.154419L1437.60144,2015.154419L1437.60144,2011.392944z"/>
    <path transform="matrix(1,0,0,-1,0,0)" style="stroke:none;fill:#000000;fill-rule:evenodd" d="M1472.694458,2004.862549C1472.783936,1994.635498,1472.78833,1994.559326,1473.388306,1992.782227C1474.154907,1990.511841,1474.996216,1989.285645,1476.880859,1987.69165C1479.384888,1985.573853,1481.775879,1984.78772,1486.865356,1984.408936C1492.063721,1984.022095,1496.453003,1984.513428,1499.449097,1985.817627C1501.312012,1986.62854,1503.828857,1988.865356,1504.829956,1990.600098C1506.412842,1993.342896,1506.449341,1993.666382,1506.449341,2004.980347L1506.449341,2015.154419L1501.097168,2015.154419L1495.745117,2015.154419L1495.745117,2005.779175C1495.745117,2000.369507,1495.641357,1995.927734,1495.5,1995.27832C1495.168091,1993.75293,1494.197754,1992.60144,1492.702393,1991.958374C1491.707397,1991.530518,1491.135742,1991.436523,1489.541504,1991.438965C1486.852295,1991.442993,1485.349487,1992.151123,1484.22644,1993.943604C1483.713867,1994.761963,1483.701294,1994.994751,1483.633179,2004.967041L1483.563599,2015.154419L1478.083984,2015.154419L1472.604492,2015.154419L1472.694458,2004.862549z"/>
    <path transform="matrix(1,0,0,-1,0,0)" style="stroke:none;fill:#000000;fill-rule:evenodd" d="M1510.585083,2000.003906L1510.585083,1984.853394L1514.964111,1984.853394L1519.343018,1984.853394L1519.343018,1996.179688C1519.343018,2002.40918,1519.434326,2007.416626,1519.545776,2007.307495C1519.657227,2007.198242,1520.327881,2005.134155,1521.036133,2002.720581C1521.744263,2000.306885,1523.213135,1995.322876,1524.300171,1991.64502L1526.276489,1984.957764L1530.396973,1984.957764L1534.517578,1984.957764L1535.654053,1988.823853C1539.399536,2001.564331,1541.075684,2007.126221,1541.208862,2007.255371C1541.29187,2007.335938,1541.32959,2002.328369,1541.292847,1996.127563L1541.22583,1984.853394L1545.732666,1984.853394L1550.239502,1984.853394L1550.239502,2000.003906L1550.239502,2015.154419L1543.067383,2015.154419L1535.895264,2015.154419L1535.735229,2014.579712C1534.943848,2011.738892,1530.527466,1997.107544,1530.438232,1997.030884C1530.374634,1996.976318,1530.21521,1997.293701,1530.083984,1997.736328C1529.455322,1999.856934,1526.741333,2008.921387,1525.892578,2011.734985C1525.367798,2013.474731,1524.938477,2014.955811,1524.938477,2015.026367C1524.938477,2015.096802,1521.708984,2015.154419,1517.761719,2015.154419L1510.585083,2015.154419L1510.585083,2000.003906z"/>
    <path transform="matrix(1,0,0,-1,0,0)" style="stroke:none;fill:#000000;fill-rule:evenodd" d="M1554.127197,2015.080688C1554.062866,2015.025513,1554.039063,2008.201782,1554.074219,1999.91687L1554.138184,1984.853394L1559.608887,1984.853394L1565.079468,1984.853394L1565.079468,1990.495605L1565.079468,1996.137939L1569.541138,1996.137939C1575.805176,1996.137939,1578.349121,1996.726685,1580.883545,1998.763062C1583.053345,2000.50647,1584.228516,2003.538452,1583.959717,2006.699829C1583.615112,2010.752808,1581.538574,2013.229736,1577.355469,2014.577393C1575.94751,2015.031006,1575.590698,2015.046509,1565.074707,2015.112793C1559.117798,2015.150391,1554.191406,2015.135864,1554.127197,2015.080688zM1571.352051,2008.430908C1572.745972,2007.861572,1573.450684,2006.715942,1573.290039,2005.280273C1573.051636,2003.14856,1571.634155,2002.376343,1567.703735,2002.237305L1565.079468,2002.144409L1565.079102,2005.567017L1565.078857,2008.989746L1567.694458,2008.923218C1569.705078,2008.87207,1570.550903,2008.758179,1571.352051,2008.430908z"/>
    <path transform="matrix(1,0,0,-1,0,0)" style="stroke:none;fill:#000000;fill-rule:evenodd" d="M1807.055542,2015.589111C1804.346191,2015.245361,1801.7948,2014.449341,1800.205933,2013.452026C1797.090454,2011.496338,1795.509766,2008.169312,1796.290649,2005.210693C1797.3479,2001.204834,1800.844971,1999.134521,1809.817749,1997.202393C1814.95459,1996.096313,1816.723755,1994.966675,1816.351807,1993.030396C1815.868896,1990.516479,1811.517944,1989.386353,1808.218262,1990.917725C1807.082031,1991.445068,1805.755127,1993.12561,1805.414673,1994.468018C1805.209717,1995.276123,1805.159058,1995.303711,1803.88147,1995.300293C1801.910522,1995.295044,1794.9729,1994.873047,1794.793091,1994.747559C1794.451416,1994.509033,1795.706909,1990.963379,1796.610107,1989.615845C1799.08728,1985.920166,1803.335938,1984.337646,1810.860718,1984.307861C1817.61145,1984.281128,1821.644043,1985.539917,1824.563477,1988.584961C1826.373413,1990.472778,1827.078369,1992.42749,1826.930298,1995.147217C1826.822754,1997.121948,1826.67688,1997.611938,1825.822388,1998.869995C1824.766479,2000.424805,1822.817383,2001.919189,1820.757935,2002.753296C1819.342896,2003.326294,1814.586914,2004.547363,1810.322021,2005.432495C1806.625244,2006.199829,1805.471924,2007.223633,1806.588135,2008.747437C1807.267334,2009.674561,1808.201294,2010.004272,1810.16333,2010.009399C1811.976318,2010.014282,1812.976563,2009.794922,1813.816895,2009.208252C1814.371094,2008.821289,1815.473999,2007.104736,1815.482788,2006.615356C1815.488281,2006.313232,1815.759521,2006.22644,1816.687012,2006.230347C1818.453613,2006.237793,1825.783813,2006.651245,1825.92749,2006.751587C1825.995361,2006.79895,1825.813965,2007.577637,1825.524414,2008.481812C1823.977417,2013.311279,1819.925659,2015.498901,1812.15918,2015.697876C1810.215942,2015.747559,1807.919189,2015.69873,1807.055542,2015.589111z"/>
    <path transform="matrix(1,0,0,-1,0,0)" style="stroke:none;fill:#000000;fill-rule:evenodd" d="M1608.552856,2004.275024C1608.459717,1993.786499,1608.433594,1993.382324,1607.80188,1992.63147C1606.871094,1991.525269,1605.785889,1991.149658,1604.285767,1991.414429C1602.726807,1991.689575,1601.823486,1992.847168,1601.645508,1994.797852C1601.495972,1996.437256,1601.906006,1996.359375,1596.644043,1995.747681C1590.661011,1995.052124,1591.057251,1995.155151,1591.057251,1994.294067C1591.057251,1992.448242,1592.217529,1989.790161,1593.782104,1988.052246C1596.137207,1985.436157,1599.665771,1984.314209,1605.583008,1984.300171C1609.722534,1984.290405,1612.185303,1984.90979,1614.802368,1986.619019C1615.940308,1987.362183,1617.152832,1988.422729,1617.641479,1989.102539C1619.302368,1991.412842,1619.525146,1993.093994,1619.695801,2004.609375L1619.851929,2015.140869L1614.250732,2015.140869L1608.649536,2015.140869L1608.552856,2004.275024z"/>
    <path transform="matrix(1,0,0,-1,0,0)" style="stroke:none;fill:#000000;fill-rule:evenodd" d="M1622.024414,2005.595947C1622.024414,1993.142334,1622.435791,1991.256836,1625.837402,1988.119751C1628.475952,1985.686279,1631.172974,1984.771606,1636.86499,1984.379517C1640.601563,1984.122192,1644.463623,1984.385254,1647.114624,1985.077759C1650.882446,1986.062012,1654.208984,1989.091919,1655.554565,1992.765015C1656.136719,1994.354126,1656.184204,1995.262085,1656.184204,2004.812256L1656.184204,2015.140869L1650.769043,2015.140869L1645.354004,2015.140869L1645.262085,2004.943726L1645.170044,1994.746582L1644.371948,1993.632568C1643.457397,1992.355957,1642.107666,1991.639771,1640.219238,1991.428955C1637.377197,1991.111572,1634.616821,1992.25354,1633.703735,1994.12439C1633.272095,1995.009033,1633.19812,1996.620239,1633.19812,2005.150635L1633.19812,2015.140869L1627.611328,2015.140869L1622.024414,2015.140869L1622.024414,2005.595947z"/>
    <path transform="matrix(1,0,0,-1,0,0)" style="stroke:none;fill:#000000;fill-rule:evenodd" d="M1658.418945,1999.984497L1658.418945,1984.828125L1663.047974,1984.828125L1667.677124,1984.828125L1667.704102,1996.028198L1667.731079,2007.228271L1670.082275,1999.538696C1671.375366,1995.309448,1672.893066,1990.266602,1673.454956,1988.332397L1674.476685,1984.815674L1678.655762,1984.877563L1682.834961,1984.939575L1683.35498,1986.834106C1683.640991,1987.876099,1684.406372,1990.483887,1685.055664,1992.62915C1685.705078,1994.774536,1686.950073,1998.932007,1687.822388,2001.868286C1688.694702,2004.804443,1689.47522,2007.253418,1689.556885,2007.310425C1689.63855,2007.367432,1689.705322,2002.332275,1689.705322,1996.121094L1689.705322,1984.828125L1694.174927,1984.828125L1698.644409,1984.828125L1698.644409,1999.988647L1698.644409,2015.14917L1691.403687,2015.089233L1684.163086,2015.029419L1682.187866,2008.454224C1679.169312,1998.405762,1678.797241,1997.204956,1678.675537,1997.116333C1678.517456,1997.001465,1678.397339,1997.382813,1675.03125,2008.687256C1674.171753,2011.57373,1673.370972,2014.206543,1673.251831,2014.538086L1673.035156,2015.140869L1665.727051,2015.140869L1658.418945,2015.140869L1658.418945,1999.984497z"/>
    <path transform="matrix(1,0,0,-1,0,0)" style="stroke:none;fill:#000000;fill-rule:evenodd" d="M1700.559814,1999.995117L1700.559814,1984.828125L1706.141235,1984.828125L1711.722656,1984.828125L1711.807983,1990.456055L1711.893311,1996.083984L1717.001221,1996.200073C1721.882446,1996.311035,1722.201416,1996.346802,1724.184326,1997.005371C1729.107544,1998.640503,1731.130249,2001.597046,1730.815796,2006.698486C1730.561646,2010.821655,1728.844482,2013.048462,1724.868042,2014.411865L1723.067017,2015.029419L1711.813477,2015.095703L1700.559814,2015.162109L1700.559814,1999.995117zM1717.234619,2008.889404C1719.660034,2008.419189,1720.93457,2006.237549,1719.894531,2004.336304C1719.094604,2002.874146,1717.828857,2002.408569,1714.526123,2002.361938L1711.893311,2002.324829L1711.805176,2005.723877L1711.717041,2009.122803L1713.880249,2009.121582C1715.070068,2009.120972,1716.579468,2009.016479,1717.234619,2008.889404z"/>
    <path transform="matrix(1,0,0,-1,0,0)" style="stroke:none;fill:#000000;fill-rule:evenodd" d="M1731.846313,1999.984497L1731.846313,1984.828125L1746.851074,1984.828125L1761.855835,1984.828125L1761.855835,1988.168091L1761.855835,1991.508179L1752.358154,1991.567139L1742.860474,1991.626221L1742.860474,1994.635132L1742.860474,1997.644165L1751.400391,1997.703491L1759.940308,1997.762939L1759.940308,2000.886353L1759.940308,2004.009766L1751.400391,2003.989014L1742.860474,2003.968262L1742.860474,2006.353638L1742.860474,2008.739014L1752.118774,2008.763794L1761.376953,2008.788574L1761.465576,2011.964722L1761.554199,2015.140869L1746.700195,2015.140869L1731.846313,2015.140869L1731.846313,1999.984497z"/>
    <path transform="matrix(1,0,0,-1,0,0)" style="stroke:none;fill:#000000;fill-rule:evenodd" d="M1762.887207,2000.054443L1762.973267,1984.939575L1768.480225,1984.87854L1773.987305,1984.817627L1773.987305,1990.952271L1773.987305,1997.086914L1775.253174,1997.086914C1777.360718,1997.086914,1778.366333,1996.254272,1780.695557,1992.580688C1781.805664,1990.829834,1783.165771,1988.69519,1783.718018,1987.837158C1784.270142,1986.979004,1784.910034,1985.950928,1785.139893,1985.55249L1785.557739,1984.828125L1791.744385,1984.828125C1795.147095,1984.828125,1797.93103,1984.883545,1797.93103,1984.951416C1797.93103,1985.019165,1796.639893,1987.200684,1795.061768,1989.799194C1791.842041,1995.100586,1790.533325,1996.634766,1788.494385,1997.498169C1787.725708,1997.823608,1787.092285,1998.146729,1787.08667,1998.216064C1787.081055,1998.285522,1787.866577,1998.570801,1788.832031,1998.85022C1789.981201,1999.182739,1791.040039,1999.716553,1791.897705,2000.395752C1794.439087,2002.408325,1795.188232,2004.095581,1795.000244,2007.383911C1794.890015,2009.310913,1794.7229,2009.904419,1793.960327,2011.075806C1792.935791,2012.649658,1791.277344,2013.818359,1789.046265,2014.539185C1787.61377,2015.001831,1787.070923,2015.023682,1775.178345,2015.094971L1762.801147,2015.169189L1762.887207,2000.054443zM1781.395386,2008.891113C1784.815918,2008.227783,1785.107178,2004.57373,1781.828491,2003.456543C1780.925781,2003.148926,1779.6427,2002.999146,1777.279297,2002.925781L1773.987305,2002.823608L1773.987305,2005.973267L1773.987305,2009.122803L1777.099976,2009.121582C1778.812012,2009.120972,1780.744873,2009.017212,1781.395386,2008.891113z"/>
</svg>
